<?xml version="1.0" encoding="UTF-8"?>
<svg id="Layer_2" data-name="Layer 2" xmlns="http://www.w3.org/2000/svg" viewBox="0 0 353.65 104.97">
  <defs>
    <style>
      .cls-1 {
        fill: #fff;
      }
    </style>
  </defs>
  <g id="Layer_1-2" data-name="Layer 1">
    <path class="cls-1" d="M96.25,83.73c-5.21,0-9.23-1.67-12.07-5.02-2.83-3.34-4.25-7.8-4.25-13.37v-24.9h12.87v22.98c0,2.96.75,5.26,2.26,6.9,1.51,1.64,3.51,2.45,6.01,2.45s4.57-.96,6.05-2.87c1.48-1.92,2.22-4.33,2.22-7.24v-22.22h12.95v42.75h-6.44c-2.04,0-3.64-.57-4.79-1.72-1.15-1.15-1.72-2.74-1.72-4.79v-2.3c-1.28,3.22-3.06,5.58-5.36,7.09-2.3,1.51-4.88,2.26-7.74,2.26ZM150.89,83.73c-4.7,0-8.3-1.29-10.8-3.87-2.5-2.58-3.75-6.32-3.75-11.22v-17.7h-6.82v-10.5h3.37c1.12,0,2.04-.36,2.76-1.07.71-.71,1.07-1.63,1.07-2.76v-6.59h12.56v4.6c0,1.12-.41,2.31-1.23,3.56-.82,1.25-2.02,2.01-3.6,2.26h13.33v10.5h-8.5v17.85c0,1.23.39,2.18,1.19,2.87.79.69,1.75,1.03,2.87,1.03.92,0,1.81-.25,2.68-.77l3.22,9.5c-1.23.72-2.53,1.28-3.91,1.69-1.38.41-2.86.61-4.44.61ZM114.75,100.54l-4.93-10.1c-.08.04-7.81,3.66-19.77,3.27-11.54-.38-20.23-10.38-22.13-25.49-2.18-17.34,6.73-42.52,6.82-42.77.67-1.88.3-3.97-.98-5.5-5.1-6.1-13.71-7.4-19.19-2.9-6.58,5.41-12.74,12.66-17.99,20.81.92-2.79,1.84-5.37,2.68-7.72,1.76-4.95,3.16-8.85,3.57-11.97,1.09-8.33-7.58-14.99-16.7-17.27C14.63-1.97,4.96,2.15,1.49,11.38c-2.66,7.09-1.27,12.45.36,15.7,4.1,8.14,13.31,10.99,14.35,11.29l3.13-10.79c-1.54-.46-5.87-2.37-7.47-5.58-.9-1.82-.86-4,.14-6.66,1.13-3.01,3.95-4.36,8.37-4.02,6.23.48,10.88,4.05,11.28,5.5-.28,1.95-1.54,5.48-2.99,9.56-4.48,12.57-11.99,33.61-8.57,58.26.39,2.85,2.89,4.96,5.75,4.84,2.87-.09,5.21-2.34,5.42-5.21,1.45-19.98,14.82-45.69,30.44-58.53.21-.18.63-.2,1.13-.08-2.63,8.4-8.04,28.27-6.07,43.97,2.62,20.88,15.54,34.75,32.91,35.32.74.02,1.47.04,2.19.04,13.7,0,22.5-4.24,22.88-4.43ZM165.67,83.2v-42.75h12.95v10.34c.92-3.32,2.53-5.94,4.83-7.85,2.3-1.92,5.24-2.87,8.81-2.87v13.48c-.56-.1-1.1-.18-1.61-.23-.51-.05-1.02-.08-1.53-.08-2.86,0-5.32,1-7.39,2.99-2.07,1.99-3.1,4.85-3.1,8.58v18.39h-12.95ZM239.06,83.73c-4.75,0-8.79-1.07-12.1-3.22-3.32-2.15-5.54-4.95-6.67-8.43l11.95-2.68c.36,1.43,1.14,2.58,2.34,3.45,1.2.87,2.67,1.3,4.41,1.3s2.99-.34,3.91-1.03,1.38-1.52,1.38-2.49c0-1.17-.57-2.06-1.72-2.64-1.15-.59-2.6-1.07-4.37-1.46-1.76-.38-3.65-.82-5.67-1.3-2.02-.48-3.92-1.17-5.71-2.07-1.79-.89-3.24-2.12-4.37-3.68-1.12-1.56-1.69-3.64-1.69-6.24,0-2.45.68-4.67,2.03-6.67,1.35-1.99,3.32-3.6,5.9-4.83,2.58-1.23,5.73-1.84,9.46-1.84,4.65,0,8.48,1.06,11.49,3.18,3.01,2.12,5.01,4.92,5.98,8.39l-11.42,2.99c-.31-1.53-1-2.73-2.07-3.6-1.07-.87-2.5-1.3-4.29-1.3-1.64,0-2.86.31-3.68.92-.82.61-1.23,1.43-1.23,2.45,0,1.12.56,2.01,1.69,2.64,1.12.64,2.58,1.16,4.37,1.57,1.79.41,3.68.88,5.67,1.42s3.88,1.26,5.67,2.18c1.79.92,3.24,2.18,4.37,3.79,1.12,1.61,1.69,3.74,1.69,6.4,0,2.45-.72,4.65-2.15,6.59-1.43,1.94-3.44,3.46-6.01,4.56-2.58,1.1-5.63,1.65-9.16,1.65ZM284.63,83.73c-4.19,0-8.06-.85-11.61-2.57-3.55-1.71-6.41-4.18-8.58-7.39-2.17-3.22-3.26-7.1-3.26-11.65s1.03-8.25,3.1-11.57c2.07-3.32,4.81-5.92,8.24-7.81,3.42-1.89,7.18-2.83,11.26-2.83,3.32,0,6.44.6,9.35,1.8,2.91,1.2,5.27,2.86,7.09,4.98,1.81,2.12,2.72,4.61,2.72,7.47,0,2.71-.77,4.94-2.3,6.7-1.53,1.76-3.54,3.17-6.01,4.21-2.48,1.05-5.18,1.79-8.12,2.22-2.94.43-5.84.63-8.7.57-.61,0-1.26-.01-1.95-.04-.69-.03-1.21-.06-1.57-.11.41,1.79,1.63,3.28,3.68,4.48,2.04,1.2,4.32,1.8,6.82,1.8s4.74-.59,6.86-1.76c.83-.46,1.6-.95,2.3-1.48,1.87-1.4,4.44-1.36,6.27.08l4.8,3.77c-2.35,3.12-5.35,5.41-9,6.9-3.65,1.48-7.44,2.22-11.38,2.22ZM277.89,59.37c1.89,0,3.8-.14,5.75-.42,1.94-.28,3.57-.8,4.9-1.57,1.33-.77,1.99-1.86,1.99-3.29,0-1.28-.66-2.32-1.99-3.14-1.33-.82-2.89-1.23-4.67-1.23-2.04,0-3.82.49-5.32,1.46-1.51.97-2.68,2.18-3.52,3.64-.84,1.46-1.32,2.92-1.42,4.41,1.07.1,2.5.15,4.29.15ZM333.27,83.73c-4.19,0-8.06-.85-11.61-2.57-3.55-1.71-6.41-4.18-8.58-7.39-2.17-3.22-3.26-7.1-3.26-11.65s1.03-8.25,3.1-11.57c2.07-3.32,4.81-5.92,8.24-7.81,3.42-1.89,7.18-2.83,11.26-2.83,3.32,0,6.44.6,9.35,1.8,2.91,1.2,5.27,2.86,7.09,4.98,1.81,2.12,2.72,4.61,2.72,7.47,0,2.71-.77,4.94-2.3,6.7-1.53,1.76-3.54,3.17-6.01,4.21-2.48,1.05-5.18,1.79-8.12,2.22-2.94.43-5.84.63-8.7.57-.61,0-1.26-.01-1.95-.04-.69-.03-1.21-.06-1.57-.11.41,1.79,1.63,3.28,3.68,4.48,2.04,1.2,4.32,1.8,6.82,1.8s4.74-.59,6.86-1.76c.83-.46,1.6-.95,2.3-1.48,1.87-1.39,4.44-1.36,6.27.08l4.8,3.77c-2.35,3.12-5.35,5.41-9,6.9-3.65,1.48-7.44,2.22-11.38,2.22ZM326.53,59.37c1.89,0,3.8-.14,5.75-.42,1.94-.28,3.57-.8,4.9-1.57,1.33-.77,1.99-1.86,1.99-3.29,0-1.28-.66-2.32-1.99-3.14-1.33-.82-2.89-1.23-4.67-1.23-2.04,0-3.82.49-5.32,1.46-1.51.97-2.68,2.18-3.52,3.64-.84,1.46-1.32,2.92-1.42,4.41,1.07.1,2.5.15,4.29.15ZM199.83,83.2v-42.75h12.87v42.75h-12.87ZM215.54,24.64l-2.87-.78c-1.11-.3-1.77-1.45-1.46-2.56l.78-2.87c.3-1.11-.35-2.26-1.46-2.56l-2.87-.78c-1.11-.3-2.26.35-2.56,1.46l-.78,2.87c-.3,1.11-1.45,1.77-2.56,1.46l-2.87-.78c-1.11-.3-2.26.35-2.56,1.46l-.78,2.87c-.3,1.11.35,2.26,1.46,2.56l2.87.78c1.11.3,1.77,1.45,1.46,2.56l-.78,2.87c-.3,1.11.35,2.26,1.46,2.56l2.87.78c1.11.3,2.26-.35,2.56-1.46l.78-2.87c.3-1.11,1.45-1.77,2.56-1.46l2.87.78c1.11.3,2.26-.35,2.56-1.46l.78-2.87c.3-1.11-.35-2.26-1.46-2.56Z"/>
  </g>
</svg>