<?xml version="1.0" encoding="UTF-8"?>
<svg id="Layer_2" data-name="Layer 2" xmlns="http://www.w3.org/2000/svg" viewBox="0 0 58.42 68.44">
  <defs>
    <style>
      .cls-1 {
        fill: #fff;
      }
    </style>
  </defs>
  <g id="Layer_1-2" data-name="Layer 1">
    <path class="cls-1" d="M54.39,27.67c-2.53-3.78-5.85-6.85-9.74-9.21-.35-.21-.84-.29-1.2-.17-.28.09-.6.48-.79.81-1.67,4.2-2.29,8.26.15,12.34-4.98-1.84-6.85-7.01-6.56-11.9.36-5.94-2.04-11.75-6.77-15.41C26.28,1.65,22.42.33,18.37,0c-.48-.04-1,.34-1.14.65-.19.42-.1,1,.16,1.39,1.12,1.66,2.04,3.4,2.18,5.45.17,2.3-1.01,4.48-2.83,5.86-.78.59-1.54,1.07-2.28,1.72-2.88,2.54-5.45,5.29-7.89,8.25C-.8,32.26-2.12,44.81,3.36,55.04c2.74,5.11,7.13,8.98,12.49,11.18,4.01,1.65,8.11,2.2,12.44,2.22,4.8.02,9.43-.61,13.85-2.5,5.45-2.33,9.85-6.26,12.67-11.55,4.62-8.67,5.16-18.41-.41-26.72ZM17.39,48.42l-.67,2.44c-.26.94-1.23,1.5-2.17,1.24l-2.44-.67c-.94-.26-1.5-1.23-1.24-2.17l.67-2.44c.26-.94-.3-1.92-1.24-2.17l-2.44-.67c-.94-.26-1.5-1.23-1.24-2.17l.67-2.44c.26-.94,1.23-1.5,2.17-1.24l2.44.67c.94.26,1.92-.3,2.17-1.24l.67-2.44c.26-.94,1.23-1.5,2.17-1.24l2.44.67c.94.26,1.5,1.23,1.24,2.17l-.67,2.44c-.26.94.3,1.92,1.24,2.17l2.44.67c.94.26,1.5,1.23,1.24,2.17l-.67,2.44c-.26.94-1.23,1.5-2.17,1.24l-2.44-.67c-.94-.26-1.92.3-2.17,1.24ZM30.36,54.6l-.39,1.43c-.15.55-.72.88-1.27.73l-1.43-.39c-.55-.15-1.12.17-1.27.73l-.39,1.43c-.15.55-.72.88-1.27.73l-1.43-.39c-.55-.15-.88-.72-.73-1.27l.39-1.43c.15-.55-.18-1.12-.73-1.27l-1.43-.39c-.55-.15-.88-.72-.73-1.27l.39-1.43c.15-.55.72-.88,1.27-.73l1.43.39c.55.15,1.12-.17,1.27-.73l.39-1.43c.15-.55.72-.88,1.27-.73l1.43.39c.55.15.88.72.73,1.27l-.39,1.43c-.15.55.18,1.12.73,1.27l1.43.39c.55.15.88.72.73,1.27Z"/>
  </g>
</svg>