<?xml version="1.0" encoding="UTF-8"?>
<svg id="Layer_2" data-name="Layer 2" xmlns="http://www.w3.org/2000/svg" viewBox="0 0 78.04 69.03">
  <defs>
    <style>
      .cls-1 {
        fill: #fff;
      }
    </style>
  </defs>
  <g id="Layer_1-2" data-name="Layer 1">
    <path class="cls-1" d="M50.18,13.88c-4.78,1.08-8.98,3.66-12.09,7.23h-14.41L34.3,2.73c2.1-3.64,7.35-3.64,9.45,0l6.44,11.15ZM34.99,25.66h-13.94l-10.82,18.75h23.8c-1.01-2.57-1.57-5.37-1.57-8.31,0-3.77.91-7.32,2.54-10.45ZM77.3,60.85l-5.35-9.25c-4.14,4.5-10.1,7.31-16.7,7.31-7.82,0-14.71-3.94-18.82-9.93H7.6L.74,60.85c-2.1,3.64.53,8.18,4.74,8.18h67.1c4.2,0,6.83-4.55,4.73-8.18ZM55.25,17.86c-10.08,0-18.25,8.17-18.25,18.25s8.17,18.25,18.25,18.25,18.25-8.17,18.25-18.25-8.17-18.25-18.25-18.25ZM52.84,42.95c-.51,0-1.02-.2-1.41-.59l-4.86-4.86c-.78-.78-.78-2.04,0-2.82.78-.78,2.04-.78,2.82,0l3.45,3.45,8.27-8.27c.78-.78,2.04-.78,2.82,0,.78.78.78,2.04,0,2.82l-9.69,9.69c-.39.39-.9.59-1.41.59Z"/>
  </g>
</svg>