<?xml version="1.0" encoding="UTF-8"?>
<svg id="Layer_2" data-name="Layer 2" xmlns="http://www.w3.org/2000/svg" viewBox="0 0 78.64 78.27">
  <defs>
    <style>
      .cls-1 {
        fill: #fff;
      }
    </style>
  </defs>
  <g id="Layer_1-2" data-name="Layer 1">
    <g>
      <path class="cls-1" d="M40.55,0c1.05.28,2.13.4,3.18.72,2.93.91,5.52,2.9,7.47,5.23.33.06.88-.89,1.12-1.14,1.7-1.75,4.12-3.35,6.45-4.09,1.04-.33,2.13-.44,3.18-.72h2.14c2.41.58,3.33,3.66,1.45,5.35-1.09.97-1.94.6-3.17.81-4.35.73-7.42,3.75-8.05,8.15l-.02,49.34c.49,4.53,3.62,7.68,8.07,8.43.72.12,1.33-.02,2.09.2,2.95.87,2.68,5.44-.49,5.91-3.03.45-7.3-1.25-9.71-3.04-1.14-.85-2-1.94-3.06-2.87-2.72,3.33-6.94,5.8-11.32,5.95-5.1.18-4.93-5.59-1.21-6.1,5.36-.75,8.43-2.48,9.51-8.21l.02-49.34c-.93-5.89-4.07-7.73-9.54-8.49-3.49-.48-3.59-5.24-.25-6.1h2.14Z"/>
      <path class="cls-1" d="M.21,28.73c.59-5.85,5.76-10.49,11.53-10.86,9.01-.56,18.6.44,27.67,0,3.58.39,3.83,5.37.26,6.08l-27.63.03c-3.06.24-5.38,2.57-5.72,5.59.36,6.15-.49,12.86,0,18.95.23,2.91,2.35,5.16,5.19,5.66l28.05.07c3.6.58,3.57,5.7-.15,6.11-9.02-.42-18.55.56-27.51,0-6.1-.37-10.79-4.86-11.68-10.86.49-6.64-.66-14.25,0-20.78Z"/>
      <path class="cls-1" d="M74.88,56.79c-2,2-4.99,3.36-7.82,3.57-2.72.2-7.27.37-6.58-3.67.56-3.28,4.16-2.2,6.41-2.45,2.92-.32,5.22-2.81,5.45-5.71.48-6.04-.37-12.7,0-18.81-.24-2.99-2.58-5.45-5.59-5.72-2.23-.2-5.87.74-6.3-2.56-.52-3.98,3.92-3.74,6.61-3.56,6.07.42,10.9,5.35,11.38,11.38-1.04,8.17,2.73,21.23-3.57,27.53Z"/>
      <path class="cls-1" d="M32.56,40.23l-.62,2.27c-.24.88-1.14,1.39-2.02,1.16l-2.27-.62c-.88-.24-1.78.28-2.02,1.16l-.62,2.27c-.24.88-1.14,1.39-2.02,1.16l-2.27-.62c-.88-.24-1.39-1.14-1.16-2.02l.62-2.27c.24-.88-.28-1.78-1.16-2.02l-2.27-.62c-.88-.24-1.39-1.14-1.16-2.02l.62-2.27c.24-.88,1.14-1.39,2.02-1.16l2.27.62c.88.24,1.78-.28,2.02-1.16l.62-2.27c.24-.88,1.14-1.39,2.02-1.16l2.27.62c.88.24,1.39,1.14,1.16,2.02l-.62,2.27c-.24.88.28,1.78,1.16,2.02l2.27.62c.88.24,1.39,1.14,1.16,2.02Z"/>
    </g>
  </g>
</svg>