<?xml version="1.0" encoding="UTF-8"?>
<svg id="Layer_2" data-name="Layer 2" xmlns="http://www.w3.org/2000/svg" viewBox="0 0 77.59 65.91">
  <defs>
    <style>
      .cls-1 {
        fill: #fff;
      }
    </style>
  </defs>
  <g id="Layer_1-2" data-name="Layer 1">
    <path class="cls-1" d="M77.59,1.92v2.55c-.09.9-.16,1.85-.21,2.87l-.08,1.69-.37,7.54c-.06,1.28-1.02,2.34-2.24,2.58-.73.15-1.45-.19-1.96-.7l-3.76-3.7-30.69,30.69c-1.59,1.65-4.09,1.76-5.73.12l-12.26-12.25-12.68,12.68c-1.78,1.78-4.41,1.75-6.06-.19-1.83-1.52-2.12-4.18-.36-5.93l16.35-16.33c1.59-1.5,3.97-1.53,5.53.02l12.3,12.26,27.34-27.35-3.69-3.73c-.75-.76-.95-1.71-.52-2.65.36-.77,1.13-1.36,2.16-1.41L74.99,0c1.34-.06,2.19.82,2.6,1.91ZM69.91,64.46V22.24c-.34-.37-.59-.61-.97-.91l-11.56,11.54v31.59c0,.81.64,1.45,1.41,1.45h9.79c.78,0,1.33-.73,1.33-1.45ZM51.07,65.91c.82-.04,1.47-.6,1.47-1.49v-26.67s-10.92,10.89-10.92,10.89c-.51.51-.99.89-1.61,1.35v14.32c0,.81.49,1.58,1.43,1.58h9.63ZM35.16,51.37c-2.34-.07-4.31-.96-5.89-2.53l-6.63-6.58v22.17c0,.83.64,1.47,1.45,1.47h9.55c.82,0,1.52-.56,1.52-1.5v-13.02ZM16.36,65.9c.77,0,1.42-.63,1.42-1.44v-22.04s-7.07,7-7.07,7c-1.48,1.47-3.3,2.28-5.45,2.49v12.4c0,.84.5,1.59,1.47,1.59h9.63ZM45.29,17.13l-.7,2.58c-.27,1-1.3,1.58-2.3,1.31l-2.58-.7c-1-.27-2.03.32-2.3,1.31l-.7,2.58c-.27,1-1.3,1.58-2.3,1.31l-2.58-.7c-1-.27-1.58-1.3-1.31-2.3l.7-2.58c.27-1-.32-2.03-1.31-2.3l-2.58-.7c-1-.27-1.58-1.3-1.31-2.3l.7-2.58c.27-1,1.3-1.58,2.3-1.31l2.58.7c1,.27,2.03-.32,2.3-1.31l.7-2.58c.27-1,1.3-1.58,2.3-1.31l2.58.7c1,.27,1.58,1.3,1.31,2.3l-.7,2.58c-.27,1,.32,2.03,1.31,2.3l2.58.7c1,.27,1.58,1.3,1.31,2.3Z"/>
  </g>
</svg>