<?xml version="1.0" encoding="UTF-8"?>
<svg id="Layer_2" data-name="Layer 2" xmlns="http://www.w3.org/2000/svg" viewBox="0 0 70.04 63.33">
  <defs>
    <style>
      .cls-1 {
        fill: #fff;
      }
    </style>
  </defs>
  <g id="Layer_1-2" data-name="Layer 1">
    <path class="cls-1" d="M44.28,47.43c0-5.34-4.03-9.44-9.15-9.5-5.04-.06-9.32,3.99-9.33,9.21l-.02,16.2h-13.81c-2.65,0-4.65-2.2-4.69-4.8v-24.98s-2.38-.05-2.38-.05c-2.13-.05-3.86-1.27-4.54-3.03-.82-2.11-.21-4.16,1.53-5.62L28.9,2.22c3.63-3.04,8.78-2.92,12.38.1l26.91,22.55c1.73,1.45,2.29,3.53,1.49,5.6-1.2,3.1-4.01,3.07-6.91,3.09v24.97c-.05,2.6-2.04,4.79-4.69,4.8h-13.82s.01-15.9.01-15.9Z"/>
  </g>
</svg>