<?xml version="1.0" encoding="UTF-8"?>
<svg id="Layer_2" data-name="Layer 2" xmlns="http://www.w3.org/2000/svg" viewBox="0 0 355.12 324.87">
  <defs>
    <style>
      .cls-1 {
        fill: #fff;
      }
    </style>
  </defs>
  <g id="Layer_1-2" data-name="Layer 1">
    <g>
      <path class="cls-1" d="M284.3,324.87c-2.22,0-4.47-.04-6.76-.11-53.75-1.76-93.72-44.66-101.84-109.3-6.11-48.59,10.65-110.09,18.78-136.07-1.55-.38-2.84-.3-3.5.25-48.34,39.73-89.71,119.29-94.2,181.14-.64,8.88-7.88,15.83-16.78,16.12-8.86.34-16.57-6.18-17.79-14.99-10.57-76.28,12.66-141.4,26.54-180.31,4.5-12.61,8.4-23.53,9.27-29.58-1.23-4.48-15.63-15.53-34.91-17.02-13.7-1.06-22.42,3.12-25.91,12.44-3.09,8.23-3.23,14.98-.44,20.62,4.93,9.95,18.35,15.84,23.11,17.28l-9.7,33.4c-3.21-.92-31.74-9.74-44.42-34.93-5.05-10.04-9.35-26.62-1.11-48.57C15.34,6.64,45.26-6.1,80.86,2.79c28.23,7.04,55.05,27.66,51.68,53.43-1.26,9.66-5.58,21.75-11.04,37.06-2.6,7.28-5.44,15.26-8.29,23.89,16.24-25.22,35.31-47.66,55.68-64.41,16.96-13.94,43.6-9.92,59.39,8.96,3.96,4.73,5.11,11.21,3.03,17.02-.28.77-27.85,78.69-21.11,132.37,5.87,46.75,32.75,77.7,68.48,78.88,37.03,1.23,60.95-9.99,61.19-10.11l15.26,31.25c-1.19.59-28.43,13.72-70.82,13.72Z"/>
      <path class="cls-1" d="M340.24,176.85l-12.74-3.47c-4.93-1.34-7.83-6.42-6.49-11.35l3.47-12.74c1.34-4.93-1.56-10.01-6.49-11.35l-12.74-3.47c-4.93-1.34-10.01,1.56-11.35,6.49l-3.47,12.74c-1.34,4.93-6.42,7.83-11.35,6.49l-12.74-3.47c-4.93-1.34-10.01,1.56-11.35,6.49l-3.47,12.74c-1.34,4.93,1.56,10.01,6.49,11.35l12.74,3.47c4.93,1.34,7.83,6.42,6.49,11.35l-3.47,12.74c-1.34,4.93,1.56,10.01,6.49,11.35l12.74,3.47c4.93,1.34,10.01-1.56,11.35-6.49l3.47-12.74c1.34-4.93,6.42-7.83,11.35-6.49l12.74,3.47c4.93,1.34,10.01-1.56,11.35-6.49l3.47-12.74c1.34-4.93-1.56-10.01-6.49-11.35Z"/>
    </g>
  </g>
</svg>