<?xml version="1.0" encoding="UTF-8"?>
<svg id="Layer_2" data-name="Layer 2" xmlns="http://www.w3.org/2000/svg" viewBox="0 0 84.03 67.98">
  <defs>
    <style>
      .cls-1 {
        fill: #fff;
      }
    </style>
  </defs>
  <g id="Layer_1-2" data-name="Layer 1">
    <path class="cls-1" d="M64.89,21.7l-.08-11.23c-.17-1.51-1.67-3.15-3.16-3.4-1.14-.19-4.97.22-5.59-.18-1.33-2.95-1.16-6.42-5.21-6.74-5.83.38-12.28-.5-18.04,0-3.84.33-4.04,3.79-5.13,6.7-3.48.09-8.07-.81-8.84,3.77l-.03,11.35.03,4v10.92c0,.06.4,1.04.48,1.2.6,1.12,1.84,1.96,3.11,2.09h38.8c1.87-.07,3.74-2.04,3.74-3.89v-10.46l-.08-4.12ZM41.98,34.23c-15.95.11-17.03-23.56-1.48-25.01,17.62-1.66,18.53,24.89,1.48,25.01ZM45.57,58.38l-.25.32-10.87,8.35-.08.05c-.87.58-1.85.88-2.85.88-2.56,0-4.68-1.91-5.03-4.55-.09-.68-.08-1.79-.04-3.67,0-.33.02-.74.02-1.16-10.79-2.14-23.23-7.88-25.97-17.93-2.54-9.33,4.93-16.55,13.37-20.54l.02,11.75c-2.17,1.66-3.52,3.43-3.73,4.99-.21,1.61.77,3.38,2.94,5.26,2.9,2.52,7.43,4.55,13.25,5.95-.02-.74,0-1.47.15-2.18.08-.36.19-.71.35-1.04h9.99c.74.55,1.53,1.1,2.33,1.66,1.98,1.39,4.03,2.82,5.74,4.45,2.32,2.21,2.56,4.9.65,7.39ZM68.71,55.28c-.08.03-7.05,2.99-10.46,2.99h-.15c-2.22-.05-4.07-1.4-4.71-3.44-.65-2.06.11-4.33,1.89-5.65l.44-.32.76-.22c5.76-1.69,13.66-3.99,16.67-8.85,1.1-1.78.91-3.01.67-3.77-.48-1.5-1.89-3.11-3.91-4.54l-.1-11.61c8.06,3.89,12.6,8.47,13.84,13.97,2.29,10.08-6.22,17.69-14.94,21.45ZM50.37,22.78l-.62,2.27c-.24.88-1.14,1.39-2.02,1.16l-2.27-.62c-.88-.24-1.78.28-2.02,1.16l-.62,2.27c-.24.88-1.14,1.39-2.02,1.16l-2.27-.62c-.88-.24-1.39-1.14-1.16-2.02l.62-2.27c.24-.88-.28-1.78-1.16-2.02l-2.27-.62c-.88-.24-1.39-1.14-1.16-2.02l.62-2.27c.24-.88,1.14-1.39,2.02-1.16l2.27.62c.88.24,1.78-.28,2.02-1.16l.62-2.27c.24-.88,1.14-1.39,2.02-1.16l2.27.62c.88.24,1.39,1.14,1.16,2.02l-.62,2.27c-.24.88.28,1.78,1.16,2.02l2.27.62c.88.24,1.39,1.14,1.16,2.02Z"/>
  </g>
</svg>