<?xml version="1.0" encoding="UTF-8"?>
<svg id="Layer_2" data-name="Layer 2" xmlns="http://www.w3.org/2000/svg" viewBox="0 0 46.5 67.98">
  <defs>
    <style>
      .cls-1 {
        fill: #fff;
      }
    </style>
  </defs>
  <g id="Layer_1-2" data-name="Layer 1">
    <g id="xJU1eC">
      <g>
        <path class="cls-1" d="M35.43,48.23c3.64,1.04,7.9,2.83,10.07,5.98,1.35,1.96,1.32,4.34-.06,6.28-2.34,3.32-7.26,5.27-11.15,6.2-7.01,1.67-14.26,1.71-21.3.18-4.12-.89-9.36-2.84-11.88-6.29-1.46-1.99-1.49-4.47-.06-6.47,2.22-3.1,6.55-4.93,10.04-5.87l3.29,3.74c-1.04.54-2.02,1.12-2.78,1.95-1.11,1.23-1.03,2.89.16,4.06,1.16,1.13,2.61,1.88,4.25,2.37,4.75,1.4,9.85,1.4,14.59-.04,1.6-.48,3.01-1.23,4.13-2.33,1.19-1.17,1.27-2.83.16-4.06-.75-.84-1.73-1.41-2.79-1.95l3.32-3.76Z"/>
        <path class="cls-1" d="M23.17,0C10.81.05.78,10.55,1.74,23.13c.45,5.84,4.53,12.69,7.98,17.44,3.67,5.05,7.79,9.61,12.27,13.94.72.7,1.8.71,2.57-.04,4.49-4.36,8.57-8.88,12.22-13.9,3.45-4.74,7.53-11.6,7.98-17.43C45.72,10.5,35.6-.05,23.17,0ZM33.81,21.18l-.74,2.71c-.29,1.05-1.37,1.67-2.41,1.38l-2.71-.74c-1.05-.29-2.13.33-2.41,1.38l-.74,2.71c-.29,1.05-1.37,1.67-2.41,1.38l-2.71-.74c-1.05-.29-1.67-1.37-1.38-2.41l.74-2.71c.29-1.05-.33-2.13-1.38-2.41l-2.71-.74c-1.05-.29-1.67-1.37-1.38-2.41l.74-2.71c.29-1.05,1.37-1.67,2.41-1.38l2.71.74c1.05.29,2.13-.33,2.41-1.38l.74-2.71c.29-1.05,1.37-1.67,2.41-1.38l2.71.74c1.05.29,1.67,1.37,1.38,2.41l-.74,2.71c-.29,1.05.33,2.13,1.38,2.41l2.71.74c1.05.29,1.67,1.37,1.38,2.41Z"/>
      </g>
    </g>
  </g>
</svg>