<?xml version="1.0" encoding="UTF-8"?>
<svg id="Layer_2" data-name="Layer 2" xmlns="http://www.w3.org/2000/svg" viewBox="0 0 71 71.68">
  <defs>
    <style>
      .cls-1 {
        fill: #fff;
      }
    </style>
  </defs>
  <g id="Layer_1-2" data-name="Layer 1">
    <path class="cls-1" d="M71,39.45v2.34c-.86,8.81-4.73,15.92-11.71,21.57H11.74C4.5,57.6.16,49.44,0,40.13c-.02-1.11.75-2.14,1.99-2.14h66.89c1.09,0,1.71.61,2.11,1.46ZM9.89,67.52c-1.24,0-2.09.96-2.1,2.07,0,1.02.83,2.08,2.04,2.08h51.35c1.21,0,2.05-1.06,2.04-2.08-.01-1.13-.83-2.08-2.17-2.08H9.89ZM17.22,22.53l.06-3.58c.02-1.18.96-2.06,2.08-2.03,1.03.03,1.98.86,1.98,2v7.76s7.28,7.15,7.28,7.15l3.7-.02c1-3.45.15-7-2.26-9.63,2.11-3.93,1.33-8.64-1.77-11.69-3.03-2.98-7.69-3.74-11.57-1.65-3.6-3.43-9.25-3.7-13.1-.53-4.47,3.68-4.85,10.28-.83,14.45-1.52,2.85-1.58,6.23-.14,9.07l20-.02-4.18-4.26-7.89-.02c-1.13,0-1.9-1.11-1.87-2.08.03-1.05.87-1.95,1.99-1.96l3.64-.06-6.87-6.9c-.8-.8-.63-2.12.1-2.82s1.98-.83,2.8-.01l6.84,6.81ZM69.03,20.04c-1.87-.38-3.72-.47-5.65-.17.28-2.07.25-4.08-.3-6.06-.31-1.11-1.38-1.75-2.5-1.5-1.01.23-1.8,1.3-1.52,2.46.44,1.81.54,3.68-.1,5.48-2.84-2.63-7.1-2.42-9.65.44l-10.87,13.13h23.38c3.01-2.28,3.52-6.55,1.13-9.53,1.79-.61,3.56-.55,5.3-.15,1.26.39,2.31-.36,2.75-1.49v-.94c-.34-.89-.97-1.47-1.96-1.67ZM51.84,14.53c-2.34-4.4-6.9-6.78-11.76-6.47-2.84.18-5.53.93-7.83,2.63,3,3.7,3.86,8.47,2.55,12.91,1.08,1.75,1.65,3.52,2.01,5.64l9.32-11.23c1.56-1.77,3.43-2.87,5.7-3.48ZM62.04,6.46l-.41,1.52c-.16.59-.77.94-1.36.77l-1.52-.41c-.59-.16-1.19.19-1.36.77l-.41,1.52c-.16.59-.77.94-1.36.77l-1.52-.41c-.59-.16-.94-.77-.77-1.36l.41-1.52c.16-.59-.19-1.19-.77-1.36l-1.52-.41c-.59-.16-.94-.77-.77-1.36l.41-1.52c.16-.59.77-.94,1.36-.77l1.52.41c.59.16,1.19-.19,1.36-.77l.41-1.52c.16-.59.77-.94,1.36-.77l1.52.41c.59.16.94.77.77,1.36l-.41,1.52c-.16.59.19,1.19.77,1.36l1.52.41c.59.16.94.77.77,1.36Z"/>
  </g>
</svg>