<?xml version="1.0" encoding="UTF-8"?>
<svg id="Layer_2" data-name="Layer 2" xmlns="http://www.w3.org/2000/svg" viewBox="0 0 66.04 65.95">
  <defs>
    <style>
      .cls-1 {
        fill: #fff;
      }
    </style>
  </defs>
  <g id="Layer_1-2" data-name="Layer 1">
    <g>
      <path class="cls-1" d="M31.27.07c7.95-.77,15.62,4.8,16.26,12.96.54,6.84-.41,14.36,0,21.27-1.1,10.58-12.74,16.65-22.03,11.1-11.05-6.6-5.76-21.63-7-32.23C19.05,6.59,24.65.71,31.27.07ZM36.09,11.08l-1.73-.47c-.67-.18-1.07-.87-.88-1.54l.47-1.73c.18-.67-.21-1.36-.88-1.54l-1.73-.47c-.67-.18-1.36.21-1.54.88l-.47,1.73c-.18.67-.87,1.07-1.54.88l-1.73-.47c-.67-.18-1.36.21-1.54.88l-.47,1.73c-.18.67.21,1.36.88,1.54l1.73.47c.67.18,1.07.87.88,1.54l-.47,1.73c-.18.67.21,1.36.88,1.54l1.73.47c.67.18,1.36-.21,1.54-.88l.47-1.73c.18-.67.87-1.07,1.54-.88l1.73.47c.67.18,1.36-.21,1.54-.88l.47-1.73c.18-.67-.21-1.36-.88-1.54Z"/>
      <path class="cls-1" d="M35.32,61.24h10.27c.17,0,1.04.48,1.23.64,1.5,1.29.69,3.77-1.36,3.96-3.73.35-8.01-.27-11.79-.01l-13.58-.06c-1.64-.47-2.18-2.65-.94-3.82.21-.19,1.09-.71,1.3-.71h10.27v-4.53l-.24-.19c-9.82-.94-18.26-8.39-20.55-17.95-.36-1.5-1.03-5.35-.41-6.65,1.03-2.14,4.08-1.5,4.37.96.31,2.6.21,4.14,1.16,6.74,5.34,14.5,25.17,16.92,33.83,4.08,2.65-3.92,2.73-6.33,3.26-10.82.35-2.97,4.21-2.79,4.57-.44.37,2.38-.58,6.48-1.43,8.76-2.89,7.82-9.76,13.52-17.93,15.12-.65.13-1.53.04-2.04.4v4.53Z"/>
      <path class="cls-1" d="M53.96,7.68c1.24-.26,2.62.64,2.77,1.9.48,4-.36,8.96-.02,13.07-.65,2.66-4.27,2.39-4.59-.42.33-3.9-.44-8.53.02-12.34.12-.97.81-2,1.81-2.21Z"/>
      <path class="cls-1" d="M11.14,7.68c1.6-.26,2.71.94,2.77,2.47-.33,3.81.43,8.33-.02,12.06-.38,3.1-4.29,2.86-4.58.3-.46-4.04.34-8.94,0-13.07.2-.83.96-1.63,1.82-1.77Z"/>
      <path class="cls-1" d="M2.09,10.69c1.4-.19,2.49,1.03,2.62,2.34s.17,5.1-.06,6.4c-.49,2.79-4.25,2.48-4.54.07-.14-1.15-.17-6.12.04-7.15.16-.78,1.18-1.55,1.95-1.66Z"/>
      <path class="cls-1" d="M63.45,10.69c1.21-.12,2.36.83,2.48,2.04s.19,5.9-.04,7.01c-.18.9-1.28,1.68-2.19,1.7-1.45.03-2.26-1.2-2.38-2.52-.11-1.22-.15-5.6.16-6.61.25-.81,1.11-1.54,1.97-1.63Z"/>
    </g>
  </g>
</svg>