<?xml version="1.0" encoding="UTF-8"?>
<svg id="Layer_2" data-name="Layer 2" xmlns="http://www.w3.org/2000/svg" viewBox="0 0 78.26 78.27">
  <defs>
    <style>
      .cls-1 {
        fill: #fff;
      }
    </style>
  </defs>
  <g id="Layer_1-2" data-name="Layer 1">
    <path class="cls-1" d="M39.82,0c1.08.33,2.14.89,2.81,1.84.13.18.7,1.32.7,1.44v42.57c.27.07.3-.11.46-.23,3.34-2.56,6.43-7.09,9.76-9.79s8.27.4,6.98,4.7c-.22.74-.83,1.45-1.33,2.03-5.22,6.09-12.18,11.69-17.71,17.57-2.22,1.33-4.03.75-5.87-.83-6.09-5.25-11.73-12.25-17.59-17.84-2.53-4.31,2.64-8.79,6.54-5.63,3.33,2.7,6.43,7.23,9.76,9.79.15.12.19.29.46.23V3.29c0-.12.57-1.26.7-1.44.67-.96,1.73-1.51,2.81-1.84h1.53ZM65.37,77.65c9.85-2.87,13.72-11.66,12.75-21.46-.33-3.37-4.16-5.21-6.94-3.14-2.73,2.04-1.46,5.94-1.8,8.9-.46,4.05-3.93,7.32-7.96,7.62H16.85c-4.21-.26-7.78-3.64-8.15-7.88-.26-2.87.93-6.65-1.76-8.63-2.71-2-6.02-.42-6.94,2.6v6.88c.22,1.03.38,2.07.65,3.09,1.53,5.69,6.3,10.47,11.98,12,1.02.28,2.06.43,3.08.65h46.69l2.96-.62Z"/>
  </g>
</svg>