<?xml version="1.0" encoding="UTF-8"?>
<svg id="Layer_2" data-name="Layer 2" xmlns="http://www.w3.org/2000/svg" viewBox="0 0 84.32 83.13">
  <defs>
    <style>
      .cls-1 {
        fill: #fff;
      }
    </style>
  </defs>
  <g id="Layer_1-2" data-name="Layer 1">
    <path class="cls-1" d="M58.9,0c.27.23.59.26.88.48,1.53,1.14,3.34,3.48,4.72,4.9,5.37,5.51,10.89,10.95,16.13,16.59.67.72,2.31,2.32,2.45,3.17.04.26.06.5.04.76-.08,1.11-1.69,2.6-2.49,3.45-6.78,7.31-14,14.25-20.85,21.49-1.3.96-3.16.43-3.8-1.01-.05-.12-.29-.78-.29-.83v-11.31c-6.1-.34-11.69.32-17.14,3.15-4.81,2.51-8.14,5.92-11.06,10.43-.78,1.2-1.24,3.11-2.88,3.38s-2.95-.78-3.1-2.44c-1.2-13.57,4.3-26.57,16.06-33.68,5.49-3.32,11.67-4.92,18.11-4.91V2.33c0-1.02,1.09-1.92,1.92-2.33h1.28ZM84.16,57.47c-.13-4.43-.26-9.02-.05-13.38v-.12s-.02-.12-.02-.12c-.44-2.32-2.3-3.9-4.57-3.79-1.91.08-3.97,1.4-4.27,4.2l-.03,28.1c-.13.92-1.1,1.84-1.96,1.87H11c-1.02,0-2.05-.98-2.11-1.97l.04-49.03c.31-.74,1.01-1.55,1.81-1.68,1.66-.28,3.81-.17,5.88-.06,1.78.09,3.62.18,5.24.04,2.74-.25,4.03-2.44,4.05-4.37.03-1.93-1.23-4.17-4.05-4.51-2.65-.32-7.89-.21-10.76-.03C5.33,12.99,1.08,16.75.02,22.43l-.02,50.71v.11c.55,5.02,5.17,9.45,10.39,9.87h63.11c5.69-.36,10.27-4.94,10.64-10.63.32-4.9.17-10.05.03-15.03Z"/>
  </g>
</svg>