<?xml version="1.0" encoding="UTF-8"?>
<svg id="Layer_2" data-name="Layer 2" xmlns="http://www.w3.org/2000/svg" viewBox="0 0 65.77 65.74">
  <defs>
    <style>
      .cls-1 {
        fill: #fff;
      }
    </style>
  </defs>
  <g id="Layer_1-2" data-name="Layer 1">
    <path class="cls-1" d="M60.19.01H5.69C2.72,0,.04,2.69.03,5.65l-.03,54.5c.3,2.99,2.46,5.15,5.4,5.59h54.98c2.88-.41,4.99-2.52,5.4-5.4V5.36C65.35,2.65,63.22.01,60.19.01ZM41.52,44.35l-.63,2.31c-.24.89-1.17,1.42-2.06,1.18l-2.31-.63c-.89-.24-1.82.28-2.06,1.18l-.63,2.31c-.24.89-1.17,1.42-2.06,1.18l-2.31-.63c-.89-.24-1.42-1.17-1.18-2.06l.63-2.31c.24-.89-.28-1.82-1.18-2.06l-2.31-.63c-.89-.24-1.42-1.17-1.18-2.06l.63-2.31c.24-.89,1.17-1.42,2.06-1.18l2.31.63c.89.24,1.82-.28,2.06-1.18l.63-2.31c.24-.89,1.17-1.42,2.06-1.18l2.31.63c.89.24,1.42,1.17,1.18,2.06l-.63,2.31c-.24.89.28,1.82,1.18,2.06l2.31.63c.89.24,1.42,1.17,1.18,2.06ZM51.87,18.97l-8.39,8.39c-.65.65-1.6.54-2.23-.06-2.98-2.84-7.13-3.84-11.24-2.91l-3.23-7.06c-.38-.83-1.3-1.08-2.01-.74-.68.32-1.06,1.19-.7,1.98l3.11,6.87c-1.94.8-3.4,3.43-4.89,1.94l-8.39-8.39c-.65-.65-.56-1.62,0-2.18,10.43-10.47,27.54-10.47,37.96,0,.56.57.65,1.53,0,2.18Z"/>
  </g>
</svg>