<?xml version="1.0" encoding="UTF-8"?>
<svg id="Layer_2" data-name="Layer 2" xmlns="http://www.w3.org/2000/svg" viewBox="0 0 80.01 80.01">
  <defs>
    <style>
      .cls-1 {
        fill: #fff;
      }
    </style>
  </defs>
  <g id="Layer_1-2" data-name="Layer 1">
    <path class="cls-1" d="M40.63,0c.92.46,1.86,1.15,1.87,2.34v6.73c0,1.44-1.24,2.49-2.56,2.45s-2.43-1.07-2.43-2.45V2.34c0-1.19.94-1.89,1.87-2.34h1.25ZM77.81,37.53l-6.87-.02c-1.39,0-2.41,1.15-2.45,2.43s1.01,2.56,2.45,2.56h6.73c1.19,0,1.9-.95,2.34-1.89v-1.21c-.43-.86-1.06-1.87-2.2-1.87ZM49.99,74.24v-4.23s-19.98,0-19.98,0c-.18,4.5-.1,9.02,5.32,10h9.29c3.05-.33,5.36-2.75,5.37-5.77ZM11.52,39.94c-.04-1.27-1.07-2.43-2.44-2.43H2.49c-1.45,0-2.53,1.21-2.49,2.57.04,1.28,1.1,2.43,2.49,2.43l6.67-.02c1.45,0,2.4-1.34,2.36-2.55ZM15.2,11.68c-1-1-2.61-.87-3.52.08-.88.92-.97,2.47,0,3.44l4.6,4.62c1.04,1.04,2.64,1.02,3.62,0,.96-1,.94-2.54-.12-3.59l-4.58-4.55ZM68.33,15.21c1-1,.87-2.62-.08-3.53s-2.48-.97-3.45,0l-4.69,4.68c-1.01,1.01-.89,2.62.07,3.54s2.48.98,3.51-.05l4.64-4.65ZM63.65,60.12c-1.01-1.01-2.63-.89-3.54.07s-.96,2.49.02,3.46l4.68,4.68c1.01,1.01,2.61.87,3.52-.08s.98-2.47-.03-3.49l-4.65-4.64ZM19.89,63.65c1.01-1.01.89-2.63-.06-3.54s-2.49-.97-3.47,0l-4.68,4.69c-1,1-.86,2.62.08,3.52s2.46.99,3.49-.03l4.64-4.64ZM54.34,58.43c-2.08,1.63-3.59,3.8-4.17,6.57h-20.41c-.46-2.74-1.87-4.9-4.02-6.56-6.26-4.83-9.54-12.31-8.99-20.12l1.39.38c.29.08.59.12.89.12,1.52,0,2.86-1.02,3.26-2.49l.19-.72.72.19c.29.08.59.12.89.12,1.52,0,2.86-1.02,3.26-2.49l.45-1.66c.24-.87.12-1.78-.33-2.57-.45-.79-1.18-1.35-2.05-1.59l-.72-.19.19-.72c.36-1.33-.13-2.68-1.12-3.5,3-2.89,6.77-5.02,10.96-5.95,10.69-2.39,21.51,2.78,26.24,12.53,4.81,9.92,2.07,21.79-6.65,28.64ZM55,39.24c.04-7.86-6.36-14.26-14.22-14.22-1.43,0-2.45,1.26-2.43,2.55.03,1.26,1.07,2.41,2.43,2.42,5.16.04,9.21,4.08,9.26,9.32.01,1.45,1.34,2.39,2.53,2.36,1.26-.04,2.42-1.06,2.42-2.43ZM24.86,29.72l-1.66-.45c-.64-.17-1.02-.84-.84-1.48l.45-1.66c.17-.64-.2-1.3-.84-1.48l-1.66-.45c-.64-.17-1.3.2-1.48.84l-.45,1.66c-.17.64-.84,1.02-1.48.84l-1.66-.45c-.64-.17-1.3.2-1.48.84l-.45,1.66c-.17.64.2,1.3.84,1.48l1.66.45c.64.17,1.02.84.84,1.48l-.45,1.66c-.17.64.2,1.3.84,1.48l1.66.45c.64.17,1.3-.2,1.48-.84l.45-1.66c.17-.64.84-1.02,1.48-.84l1.66.45c.64.17,1.3-.2,1.48-.84l.45-1.66c.17-.64-.2-1.3-.84-1.48Z"/>
  </g>
</svg>