<?xml version="1.0" encoding="UTF-8"?>
<svg id="Layer_2" data-name="Layer 2" xmlns="http://www.w3.org/2000/svg" viewBox="0 0 71.95 57.64">
  <defs>
    <style>
      .cls-1 {
        fill: #fff;
      }
    </style>
  </defs>
  <g id="Layer_1-2" data-name="Layer 1">
    <g>
      <path class="cls-1" d="M71.95,6.75v44.14c-.65,3.68-3.45,6.43-7.24,6.74H7.4c-3.95-.28-6.95-3.16-7.37-7.09C.17,37.74-.24,18.67.24,5.9,1.09,2.53,4.06.15,7.54,0h57.17c3.54.22,6.83,3.2,7.24,6.75ZM66.75,29.64V7.1c0-.57-1.18-1.78-1.82-1.83l-57.99.03c-.6.08-1.71,1.26-1.71,1.8v27.74l8.64-8.57c1.16-.84,2.39-.73,3.44.21l8.48,8.35,21.22-21.2c.99-.98,2.54-.95,3.59-.07l16.15,16.09Z"/>
      <path class="cls-1" d="M32.37,17.93l-.62,2.27c-.24.88-1.14,1.39-2.02,1.16l-2.27-.62c-.88-.24-1.78.28-2.02,1.16l-.62,2.27c-.24.88-1.14,1.39-2.02,1.16l-2.27-.62c-.88-.24-1.39-1.14-1.16-2.02l.62-2.27c.24-.88-.28-1.78-1.16-2.02l-2.27-.62c-.88-.24-1.39-1.14-1.16-2.02l.62-2.27c.24-.88,1.14-1.39,2.02-1.16l2.27.62c.88.24,1.78-.28,2.02-1.16l.62-2.27c.24-.88,1.14-1.39,2.02-1.16l2.27.62c.88.24,1.39,1.14,1.16,2.02l-.62,2.27c-.24.88.28,1.78,1.16,2.02l2.27.62c.88.24,1.39,1.14,1.16,2.02Z"/>
    </g>
  </g>
</svg>