<?xml version="1.0" encoding="UTF-8"?>
<svg id="Layer_2" data-name="Layer 2" xmlns="http://www.w3.org/2000/svg" viewBox="0 0 161.17 172.26">
  <defs>
    <style>
      .cls-1 {
        stroke-width: 1.93px;
      }

      .cls-1, .cls-2, .cls-3 {
        fill: #fff;
      }

      .cls-1, .cls-4, .cls-3, .cls-5 {
        stroke: #000;
        stroke-linecap: round;
        stroke-linejoin: round;
      }

      .cls-4 {
        stroke-width: 1.74px;
      }

      .cls-4, .cls-6 {
        fill: #fe5403;
      }

      .cls-3, .cls-5 {
        stroke-width: 1.72px;
      }

      .cls-5 {
        fill: none;
      }

      .cls-7 {
        fill: #ad2a00;
      }
    </style>
  </defs>
  <g id="Layer_1-2" data-name="Layer 1">
    <g>
      <g>
        <path class="cls-4" d="M96.31,70.57c.63,7.92,18.02,16.34,25.25,17.09,7.24.75,19.45-15.56,20.33-17.83.88-2.28-2.26-4.81-3.98-4.17-1.11.42-12.18,12.32-14.4,12.58-2.22.26-9.28-8.17-13.95-10.87-4.1-2.37-13.65-1.76-13.26,3.2Z"/>
        <g>
          <path class="cls-5" d="M150.17,56.44c1.89-1.01,4.85-.67,8.2-2.85,3.34-2.19.75-7.23-2.75-6.5-3.5.73-9.81,5.83-9.81,5.83,1.51-2.02,5.12-5.1,5.66-7.91.54-2.8-2.37-4.54-4.91-3.76-2.53.78-3.58,4.29-5.28,8.26-.92,2.13-3.06,4.04-3.06,4.04.31-2.33.22-7.11-2.48-10.2-3.08-3.52-7.74-.47-6.12,3.62.74,1.87,2.84,4.9,2.91,7.23.06,1.84-1.19,3.31-1.32,6.65-.14,3.37.41,7.83,5.77,10.58,5.45,2.8,11.84,1.1,14.29-2.54,2.4-3.57.49-7.83.82-8.07.89-.65,5.84.21,7.82-2.22,1.47-1.79-1.63-4.62-2.89-4.25"/>
          <g>
            <path class="cls-3" d="M150.17,56.44c1.89-1.01,4.85-.67,8.2-2.85,3.34-2.19.75-7.23-2.75-6.5-3.5.73-9.81,5.83-9.81,5.83,1.51-2.02,5.12-5.1,5.66-7.91.54-2.8-2.37-4.54-4.91-3.76-2.53.78-3.58,4.29-5.28,8.26-.92,2.13-3.06,4.04-3.06,4.04.31-2.33.22-7.11-2.48-10.2-3.08-3.52-7.74-.47-6.12,3.62.74,1.87,2.84,4.9,2.91,7.23.06,1.84-1.19,3.31-1.32,6.65-.14,3.37.41,7.83,5.77,10.58,5.45,2.8,11.84,1.1,14.29-2.54,2.4-3.57.49-7.83.82-8.07.89-.65,5.84.21,7.82-2.22,1.47-1.79-1.63-4.62-2.89-4.25"/>
            <path d="M140.21,54.97c4,2.59,6.14,7.94,4.31,12.45-.11.3-.43.45-.73.35-.28-.1-.42-.39-.37-.67.85-4.16-.9-8.33-3.89-11.21-.54-.45.09-1.31.68-.92h0Z"/>
          </g>
        </g>
      </g>
      <g>
        <path class="cls-4" d="M70.18,97.36s11.57,2.64,14.89,11.43c3.32,8.79-3.83,25.15-3.83,25.15l10.37-2.13s9.63-14.62,3.64-27.38c-5.99-12.76-16.31-16.28-19.71-16.25s-5.35,9.17-5.35,9.17Z"/>
        <g>
          <path class="cls-2" d="M83.54,123.67c1.84.34,4.19,1.2,5.97,1.74,1.84.52,3.89,1.27,5.74.97.33-.06.57.37.35.62-.93,1.06-2.18,1.21-3.44,1.28-1.18.02-2.3-.21-3.37-.52-2.12-.69-4.07-1.73-5.69-3.23-.38-.33-.03-.98.45-.85h0Z"/>
          <path d="M84.04,119.35c6.86-1.01,14.36,6.15,13.5,8.39-.85,2.24-3.31,10.13-3.31,10.13,0,0,11.82,12.68,11.88,14.23.06,1.55-2.34,2.48-4.3,2.3-1.97-.18-23.11-3.75-23.81-4.57s.22-10.11,1.18-13.05c.95-2.95-1.15-16.54,4.86-17.43Z"/>
          <path class="cls-2" d="M94.03,138.32c-2.85-.04-5.41-.14-8.2.54-.25.06-.51-.09-.55-.35.56-1.73,2.78-2.58,4.47-2.66,1.71-.05,3.39.41,4.68,1.59.35.32.06.93-.4.88h0Z"/>
        </g>
      </g>
      <g>
        <path class="cls-4" d="M57.38,112.1s-5.98,22.11-3.39,38.47l-7.38.8s-4.56-29.92-2.42-43.04c2.14-13.12,13.19,3.76,13.19,3.76Z"/>
        <g>
          <path d="M40.64,143.71c1.49-1.8,7.26-1.31,10.47-.95,3.21.37,6.69,2.13,7.09,3.89.4,1.76-.87,16.6-.81,19.09.06,2.49-6.1,5.47-11.34,6.33-5.24.86-15.85-1.47-16.7-3.02-.85-1.55.93-5.89,3.45-8.51,2.53-2.62,6.76-3.75,6.76-3.75l1.07-13.09Z"/>
          <path class="cls-2" d="M39.42,156.37c2.45-1.63,5.63-1.8,8.39-.97.56.14,3.86,1.44,2.34,2.02-.95.04-1.83-.04-2.7-.07-1.51-.07-3.6-.15-5.1-.13-.87,0-1.77.02-2.67,0-.44,0-.63-.61-.27-.86h0Z"/>
        </g>
      </g>
      <path class="cls-4" d="M21.26,76C12.61,78.26.29,89.45.89,97.61c.6,8.16,21.08,18.46,23.78,18.98,2.7.52,4.88-3.45,3.83-5.23-.68-1.15-16.05-11.05-16.78-13.45-.73-2.4,14.92-7.59,16.98-13.3,1.81-5.01-2.01-10.03-7.43-8.61Z"/>
      <g>
        <path class="cls-6" d="M55.3,114.78c-.3,0-.6-.02-.91-.06-20.53-2.73-37.62-18.1-42.51-38.23-.34-1.38-.06-2.84.77-3.99.81-1.14,2.08-1.87,3.47-2,10.13-.94,16.17-3.19,16.17-6.02s-6.05-5.08-16.17-6.02c-1.39-.13-2.66-.86-3.47-2-.83-1.16-1.11-2.61-.77-4,4.89-20.14,21.98-35.5,42.51-38.23.3-.04.61-.06.91-.06,3.34,0,6.19,2.47,6.64,5.76l.05.25c.49,2.58.92,3.54,1.14,3.88,1.19-1.52,2.74-10.22,2.86-16.38,0,0,0-.24,0-.26,0-.11,0-.26.03-.41h0c.28-3.44,3.21-6.13,6.68-6.13.3,0,.6.02.91.06,20.53,2.73,37.62,18.09,42.51,38.23.34,1.38.06,2.84-.77,3.99-.81,1.14-2.08,1.87-3.47,2-10.13.94-16.17,3.19-16.17,6.02s6.05,5.08,16.17,6.02c1.39.13,2.66.86,3.47,2,.82,1.16,1.1,2.61.77,3.99-4.89,20.14-21.98,35.5-42.51,38.23-.3.04-.61.06-.91.06h0c-3.52,0-6.45-2.72-6.69-6.21-.46-2.34-.87-3.23-1.08-3.56-1.19,1.52-2.73,10.22-2.86,16.37-.02,1.05-.03,1.64-.34,1.9-.81,2.78-3.39,4.81-6.44,4.81Z"/>
        <path d="M72.7,1.74c.26,0,.53.02.79.05,20.46,2.72,36.99,17.85,41.78,37.58.57,2.36-1.06,4.7-3.48,4.92-6.24.58-16.96,2.25-16.96,6.89s10.72,6.3,16.96,6.88c2.42.23,4.05,2.56,3.48,4.92-4.79,19.72-21.33,34.86-41.78,37.58-.27.04-.53.05-.79.05-3.05,0-5.64-2.36-5.82-5.46-.62-3.18-1.28-4.46-1.92-4.46-1.9,0-3.63,11.3-3.75,17.36-.02.9-.03,1.2-.04,1.2-.02,0-.03-1.15-.03-1.15,0,3.26-2.67,5.8-5.84,5.8-.26,0-.53-.02-.79-.05-20.45-2.72-36.99-17.85-41.78-37.58-.57-2.36,1.06-4.7,3.48-4.92,6.24-.58,16.96-2.25,16.96-6.88s-10.72-6.3-16.96-6.89c-2.42-.23-4.05-2.56-3.48-4.92,4.79-19.72,21.33-34.85,41.78-37.58.27-.04.53-.05.79-.05,2.9,0,5.39,2.13,5.78,5.01.02.1.04.19.06.3.64,3.38,1.32,4.73,1.98,4.73,1.9,0,3.63-11.31,3.75-17.37v-.16s0-.07,0-.11c0-.25.01-.37.02-.37,0,0,0,0,0,.01.24-3.03,2.8-5.33,5.81-5.33M72.7,0c-3.92,0-7.24,3.04-7.55,6.93h.01c-.02.14-.03.29-.04.46,0,.02,0,.09,0,.15v.16c-.1,4.79-1.04,10.79-1.93,13.92-.11-.44-.22-.96-.34-1.6l-.04-.22v-.05c-.54-3.68-3.76-6.45-7.5-6.45-.34,0-.68.02-1.02.07-20.89,2.78-38.27,18.41-43.24,38.89-.4,1.63-.07,3.34.91,4.71.96,1.35,2.46,2.21,4.1,2.36,10.63.99,15.39,3.3,15.39,5.15s-4.76,4.16-15.39,5.15c-1.65.15-3.14,1.01-4.1,2.36-.97,1.36-1.3,3.08-.91,4.7,4.98,20.48,22.36,36.11,43.24,38.89.34.04.68.07,1.02.07,3.39,0,6.26-2.22,7.23-5.28.39-.58.4-1.46.42-2.28.1-4.81,1.04-10.82,1.93-13.94.09.35.18.76.27,1.23.3,3.92,3.59,6.97,7.55,6.97.34,0,.68-.02,1.02-.07,20.89-2.78,38.26-18.41,43.24-38.89.4-1.63.07-3.34-.91-4.71-.96-1.35-2.46-2.21-4.1-2.36-10.63-.99-15.39-3.3-15.39-5.15s4.76-4.16,15.39-5.15c1.64-.15,3.14-1.01,4.1-2.36.97-1.36,1.3-3.08.91-4.71C111.99,18.47,94.61,2.85,73.72.07c-.34-.05-.68-.07-1.02-.07h0Z"/>
      </g>
      <path class="cls-7" d="M61.33,105.52c-.06.91-.1,1.77-.12,2.54-.06,2.67-.07.05-.07.05,0,3.53-3.13,6.21-6.64,5.75-20.45-2.72-36.98-17.85-41.78-37.58-.57-2.36,1.06-4.7,3.48-4.92h.03c5.53,18.5,21.51,32.48,41.1,35.08,1.47.19,2.87-.17,4-.92Z"/>
      <path class="cls-7" d="M114.69,65.15c-5.44,18.66-21.5,32.79-41.2,35.41-3.38.45-6.41-2.05-6.61-5.41-.59-3.03-1.22-4.33-1.83-4.43,1.13-6.55,3.01-11.34,4.65-2.98.2,3.35,3.23,5.85,6.62,5.4,16.98-2.26,31.27-13.08,38.37-27.99Z"/>
      <path class="cls-1" d="M40.4,111.7s4.23,2.13,8.16,7.41c3.93,5.28,3.05,8.04,1.06,9.2-2.12,1.24-5.14-3.13-5.14-3.13l-6.65-6.29s7.16,9.63,6.61,13.23c-.55,3.6-4.22,2.53-6.23.06-2.01-2.47-5.97-7.82-5.97-7.82,0,0,2.91,5.84,1.17,8.89-1.74,3.05-5.18,1.59-5.9-1.69-.42-1.9-.76-6.26-.76-6.26,0,0-5.86-1.82-8.14-6.15-3.43-6.51,1.01-9.3,1.01-9.3,5.13-9.96,13.33-5.17,14.72-5.47,6.02-1.29,12.04-2.73,14.13,1,2.14,3.82-2.88,5.98-5.17,6.1-2.29.12-4.99.43-4.99.43"/>
      <g>
        <path d="M45.49,26.87c.15,1.5.74,2.92,1.73,3.99.49.53,1.06.99,1.66,1.32.6.34,1.29.52,1.74.48h.02c.64-.06,1.2.42,1.25,1.05.05.64-.42,1.2-1.06,1.25-.05,0-.11,0-.16,0-1.2-.06-2.09-.5-2.88-1.03-.78-.54-1.45-1.2-1.99-1.94-.54-.74-.97-1.56-1.24-2.43-.27-.87-.39-1.77-.39-2.65,0-.36.29-.66.66-.66.34,0,.62.26.66.59v.03Z"/>
        <path d="M41.89,31.46c.57,1.47,1.73,2.62,3.14,3.34.7.36,1.46.61,2.22.77.75.16,1.58.18,2.1.04h.04c.63-.18,1.27.2,1.44.83.17.63-.21,1.27-.84,1.44-.04.01-.1.02-.14.03-1.21.17-2.16-.03-3.11-.31-.93-.28-1.82-.69-2.63-1.21-.81-.52-1.55-1.17-2.16-1.94-.6-.77-1.06-1.65-1.32-2.58-.1-.35.11-.71.46-.81.33-.09.67.08.79.39v.02Z"/>
        <g>
          <ellipse class="cls-2" cx="55.9" cy="45.98" rx="10.26" ry="15.47"/>
          <path d="M55.9,62.11c-6.02,0-10.92-7.24-10.92-16.13s4.9-16.13,10.92-16.13,10.92,7.24,10.92,16.13-4.9,16.13-10.92,16.13ZM55.9,31.17c-5.3,0-9.61,6.65-9.61,14.81s4.31,14.81,9.61,14.81,9.61-6.65,9.61-14.81-4.31-14.81-9.61-14.81Z"/>
        </g>
        <ellipse cx="58.49" cy="45.85" rx="6.99" ry="13.28"/>
        <g>
          <ellipse class="cls-2" cx="74.98" cy="45.98" rx="10.26" ry="15.47"/>
          <path d="M74.98,62.11c-6.02,0-10.92-7.24-10.92-16.13s4.9-16.13,10.92-16.13,10.92,7.24,10.92,16.13-4.9,16.13-10.92,16.13ZM74.98,31.17c-5.3,0-9.61,6.65-9.61,14.81s4.31,14.81,9.61,14.81,9.61-6.65,9.61-14.81-4.31-14.81-9.61-14.81Z"/>
        </g>
        <ellipse cx="77.81" cy="45.85" rx="6.99" ry="13.28"/>
        <path d="M88.15,26.92c0,.89-.12,1.79-.39,2.65-.26.87-.69,1.69-1.24,2.43-.55.74-1.21,1.4-1.99,1.94-.79.53-1.68.97-2.88,1.03-.64.03-1.18-.46-1.21-1.1-.03-.64.46-1.18,1.1-1.21.05,0,.1,0,.15,0h.02c.45.04,1.14-.14,1.74-.47.61-.33,1.18-.78,1.66-1.32.99-1.07,1.57-2.49,1.73-3.99v-.02c.04-.36.36-.63.72-.59.34.03.59.32.59.66Z"/>
        <path d="M91.69,31.85c-.26.93-.72,1.82-1.32,2.58-.6.77-1.35,1.41-2.16,1.94-.81.52-1.7.92-2.63,1.21-.95.27-1.9.47-3.11.31-.64-.09-1.09-.68-1.01-1.32.09-.64.68-1.09,1.32-1.01.05,0,.09.02.13.03h.05c.52.15,1.35.13,2.1-.03.76-.15,1.52-.41,2.22-.77,1.41-.71,2.57-1.86,3.14-3.34v-.02c.14-.34.52-.51.86-.38.32.12.49.47.4.79Z"/>
        <path d="M80.75,67.16c-.84,0-1.67-.2-2.4-.59-1.76-.95-2.68-2.89-2.55-5.31.02-.36.34-.64.69-.62.36.02.64.33.62.69-.11,1.92.55,3.37,1.86,4.08,1.34.73,3.11.53,4.51-.49.29-.21.7-.15.92.14.21.29.15.7-.14.92-1.07.78-2.31,1.18-3.51,1.18Z"/>
        <path d="M50.13,67.16c-1.21,0-2.45-.4-3.51-1.18-.29-.21-.36-.63-.14-.92.21-.29.63-.36.92-.14,1.4,1.03,3.17,1.22,4.51.49,1.31-.71,1.97-2.16,1.86-4.08-.02-.36.26-.67.62-.69.36-.02.67.26.69.62.14,2.42-.79,4.36-2.55,5.31-.73.4-1.56.59-2.4.59Z"/>
        <path d="M53.43,65.11c.71.77,1.57,1.42,2.53,1.94.94.53,1.96.96,3.01,1.3,2.09.67,4.31,1.09,6.48,1.07,2.17.02,4.39-.4,6.48-1.07,1.05-.34,2.07-.76,3.01-1.3.95-.52,1.82-1.17,2.53-1.94l.02-.02c.25-.27.66-.29.93-.04.25.23.28.6.09.86-1.47,2.1-3.71,3.34-5.95,4.22-2.27.86-4.66,1.31-7.11,1.36-2.45-.05-4.85-.5-7.11-1.36-2.23-.88-4.47-2.12-5.95-4.22-.21-.3-.14-.71.16-.92.27-.19.64-.15.86.09l.02.02Z"/>
      </g>
    </g>
  </g>
</svg>