<?xml version="1.0" encoding="UTF-8"?>
<svg id="Layer_2" data-name="Layer 2" xmlns="http://www.w3.org/2000/svg" viewBox="0 0 78.47 65.86">
  <defs>
    <style>
      .cls-1 {
        fill: #fff;
      }
    </style>
  </defs>
  <g id="Layer_1-2" data-name="Layer 1">
    <path class="cls-1" d="M18.85,64.46l-3.02-2.99c-1.92-1.9-2.02-5.29.09-7.2l29.79-26.95c-3.16-6.26-1.05-12.39,3.5-17.16,5.17-5.33,14.51-9.79,21.99-8.01,3.5.83,6.04,3.37,6.88,6.87,1.77,7.42-2.63,16.69-7.88,21.86-4.77,4.62-10.96,6.83-17.29,3.63l-26.94,29.78c-1.85,2.05-5.19,2.07-7.11.16ZM63.81,54.54l-13.66-12.46-7.69,8.5,12.08,13.23c1.79,1.97,4.86,1.81,6.67.09l2.58-2.58c1.84-1.78,2.06-4.95.02-6.78ZM33.86,27.21c2.45-5.33,1.24-11.42-2.94-15.57L20.18.91c-1.09-1.17-2.83-1.19-3.91-.17-1.09,1.02-1.21,2.75,0,3.96l9.11,9.12c1.15,1.15,1.01,2.9-.09,3.98l-1.83,1.8-11.1-11.1c-1.14-1.13-2.91-1.01-3.91.05-.97,1.02-1.04,2.69.05,3.8l11.11,11.11-1.93,1.92c-1.15,1.15-2.85,1-3.97-.12l-9.06-9.05c-1.12-1.13-2.9-1.01-3.9.05-.98,1.04-1.02,2.68.05,3.8l11.11,11.1c4.06,4.05,10.12,5.06,15.3,2.7l3.06,3.35,7.31-6.61-3.71-3.38Z"/>
  </g>
</svg>